<svg width="24" height="25" viewBox="0 0 24 25" fill="none" xmlns="http://www.w3.org/2000/svg">
<path d="M20.602 12.0812L12.4465 1.70146C12.3772 1.61285 12.2886 1.54118 12.1874 1.49189C12.0863 1.44261 11.9752 1.41699 11.8627 1.41699C11.7502 1.41699 11.6391 1.44261 11.5379 1.49189C11.4368 1.54118 11.3482 1.61285 11.2788 1.70146L3.12333 12.0812C3.01952 12.2098 2.96289 12.37 2.96289 12.5353C2.96289 12.7006 3.01952 12.8608 3.12333 12.9894L11.2788 23.3691C11.3482 23.4577 11.4368 23.5294 11.5379 23.5787C11.6391 23.628 11.7502 23.6536 11.8627 23.6536C11.9752 23.6536 12.0863 23.628 12.1874 23.5787C12.2886 23.5294 12.3772 23.4577 12.4465 23.3691L20.602 12.9894C20.7059 12.8608 20.7625 12.7006 20.7625 12.5353C20.7625 12.37 20.7059 12.2098 20.602 12.0812ZM12.6041 4.29639L18.8505 12.248L12.6041 15.0932V4.29639ZM11.1213 15.0932L4.87491 12.248L11.1213 4.29639V15.0932ZM11.1213 16.7242V20.7742L6.17238 14.4722L11.1213 16.7242ZM12.6041 16.7242L17.553 14.4722L12.6041 20.7742V16.7242Z" fill="#6A6A6A"/>
</svg>
