<svg width="15" height="15" viewBox="0 0 15 15" fill="none" xmlns="http://www.w3.org/2000/svg">
<path d="M14.0085 7.30436C12.6043 4.70853 10.1418 3.1377 7.4168 3.1377C4.6918 3.1377 2.22513 4.70853 0.833464 7.30436L0.716797 7.50019L0.82513 7.70019C2.2293 10.296 4.6918 11.8669 7.4168 11.8669C10.1418 11.8669 12.6085 10.3169 14.0085 7.70019L14.1168 7.50019L14.0085 7.30436ZM7.4168 11.0127C5.07096 11.0127 2.9168 9.70436 1.6668 7.50019C2.9168 5.29603 5.07096 3.9877 7.4168 3.9877C9.76263 3.9877 11.8918 5.30019 13.1626 7.50019C11.8918 9.70436 9.75846 11.0127 7.4168 11.0127Z" fill="#6A6A6A"/>
<path d="M7.53669 4.65437C6.97174 4.6585 6.42068 4.82995 5.95312 5.14707C5.48555 5.4642 5.12245 5.91277 4.90968 6.43614C4.6969 6.95951 4.644 7.53419 4.75765 8.08761C4.8713 8.64103 5.1464 9.14835 5.54821 9.54551C5.95002 9.94267 6.46051 10.2118 7.01522 10.319C7.56992 10.4262 8.14395 10.3666 8.6648 10.1478C9.18566 9.92894 9.62997 9.56064 9.94163 9.08941C10.2533 8.61818 10.4183 8.06517 10.4159 7.50021C10.4142 7.12414 10.3384 6.75209 10.1927 6.40538C10.047 6.05867 9.83436 5.74412 9.5669 5.47975C9.29943 5.21538 8.98242 5.00639 8.63404 4.86476C8.28566 4.72312 7.91275 4.65163 7.53669 4.65437ZM7.53669 9.53771C7.13763 9.53359 6.74868 9.41166 6.4187 9.18721C6.08871 8.96277 5.8324 8.64582 5.68196 8.27618C5.53152 7.90654 5.49365 7.50069 5.57311 7.1096C5.65258 6.71851 5.84583 6.35962 6.1286 6.078C6.41137 5.79639 6.77104 5.6046 7.16246 5.52673C7.55387 5.44887 7.95956 5.48839 8.32858 5.64034C8.69761 5.79229 9.0135 6.04989 9.2366 6.38079C9.45969 6.71169 9.58004 7.10113 9.58253 7.50021C9.58364 7.76879 9.53142 8.03492 9.4289 8.28317C9.32637 8.53142 9.17559 8.75684 8.98528 8.94637C8.79498 9.1359 8.56894 9.28577 8.32028 9.38727C8.07161 9.48878 7.80527 9.53991 7.53669 9.53771Z" fill="#6A6A6A"/>
</svg>
