<svg width="16" height="16" viewBox="0 0 16 16" fill="none" xmlns="http://www.w3.org/2000/svg">
<path d="M6 3C3.2385 3 1 5.2385 1 8C1 10.7615 3.2385 13 6 13H10C12.7615 13 15 10.7615 15 8C15 5.2385 12.7615 3 10 3H6ZM11 9.5C11 9.76522 10.8946 10.0196 10.7071 10.2071C10.5196 10.3946 10.2652 10.5 10 10.5C9.73478 10.5 9.48043 10.3946 9.29289 10.2071C9.10536 10.0196 9 9.76522 9 9.5C9 9.23478 9.10536 8.98043 9.29289 8.79289C9.48043 8.60536 9.73478 8.5 10 8.5C10.2652 8.5 10.5196 8.60536 10.7071 8.79289C10.8946 8.98043 11 9.23478 11 9.5ZM11 7.5C10.7348 7.5 10.4804 7.39464 10.2929 7.20711C10.1054 7.01957 10 6.76522 10 6.5C10 6.23478 10.1054 5.98043 10.2929 5.79289C10.4804 5.60536 10.7348 5.5 11 5.5C11.2652 5.5 11.5196 5.60536 11.7071 5.79289C11.8946 5.98043 12 6.23478 12 6.5C12 6.76522 11.8946 7.01957 11.7071 7.20711C11.5196 7.39464 11.2652 7.5 11 7.5ZM5 6C5.13261 6 5.25979 6.05268 5.35355 6.14645C5.44732 6.24021 5.5 6.36739 5.5 6.5V7.5H6.5C6.63261 7.5 6.75979 7.55268 6.85355 7.64645C6.94732 7.74021 7 7.86739 7 8C7 8.13261 6.94732 8.25979 6.85355 8.35355C6.75979 8.44732 6.63261 8.5 6.5 8.5H5.5V9.5C5.5 9.63261 5.44732 9.75979 5.35355 9.85355C5.25979 9.94732 5.13261 10 5 10C4.86739 10 4.74021 9.94732 4.64645 9.85355C4.55268 9.75979 4.5 9.63261 4.5 9.5V8.5H3.5C3.36739 8.5 3.24021 8.44732 3.14645 8.35355C3.05268 8.25979 3 8.13261 3 8C3 7.86739 3.05268 7.74021 3.14645 7.64645C3.24021 7.55268 3.36739 7.5 3.5 7.5H4.5V6.5C4.5 6.36739 4.55268 6.24021 4.64645 6.14645C4.74021 6.05268 4.86739 6 5 6Z" fill="#585858"/>
</svg>
