<svg width="13" height="13" viewBox="0 0 13 13" fill="none" xmlns="http://www.w3.org/2000/svg">
<path d="M12.017 6.41117L6.78779 1.18578C6.75014 1.14806 6.70542 1.11813 6.65619 1.0977C6.60695 1.07728 6.55418 1.06677 6.50088 1.06677C6.44758 1.06677 6.3948 1.07728 6.34557 1.0977C6.29634 1.11813 6.25162 1.14806 6.21396 1.18578L0.984766 6.41117C0.832422 6.56352 0.746094 6.77045 0.746094 6.98627C0.746094 7.43441 1.11045 7.79877 1.55859 7.79877H2.10957V11.5274C2.10957 11.7521 2.29111 11.9336 2.51582 11.9336H5.68838V9.08988H7.11025V11.9336H10.4859C10.7106 11.9336 10.8922 11.7521 10.8922 11.5274V7.79877H11.4432C11.659 7.79877 11.8659 7.71371 12.0183 7.5601C12.3344 7.24271 12.3344 6.72855 12.017 6.41117Z" fill="#585858"/>
</svg>
