<svg width="13" height="12" viewBox="0 0 13 12" fill="none" xmlns="http://www.w3.org/2000/svg">
<path d="M0 2.75766V10.8745C0 11.1398 0.257969 11.3212 0.495174 11.2228L3.61111 9.75V0.75L0.454097 2.06133C0.320075 2.11699 0.205186 2.21308 0.124247 2.3372C0.0433082 2.46131 3.20984e-05 2.60776 0 2.75766H0ZM4.33333 9.75L8.66667 11.25V2.25L4.33333 0.75V9.75ZM12.5048 0.777187L9.38889 2.25V11.25L12.5459 9.93867C12.6799 9.88303 12.7948 9.78695 12.8758 9.66283C12.9567 9.53871 13 9.39225 13 9.24234V1.12547C13 0.860156 12.742 0.67875 12.5048 0.777187Z" fill="#585858"/>
</svg>
