<svg width="12" height="14" viewBox="0 0 12 14" fill="none" xmlns="http://www.w3.org/2000/svg">
<path d="M1.42423 1.94504H10.5757C10.9353 1.94504 11.2294 1.57995 11.2294 1.13372C11.2294 0.687485 10.9353 0.322388 10.5757 0.322388H1.42423C1.0647 0.322388 0.770548 0.687485 0.770548 1.13372C0.770548 1.57995 1.0647 1.94504 1.42423 1.94504ZM11.334 3.40543C11.2752 3.03222 11.0072 2.75637 10.6934 2.75637H1.30656C0.992799 2.75637 0.72479 3.03222 0.665959 3.40543L0.012279 7.46208C-0.0661625 7.9651 0.241067 8.43567 0.652885 8.43567H0.770548V12.4923C0.770548 12.9385 1.0647 13.3036 1.42423 13.3036H6.65366C7.01319 13.3036 7.30734 12.9385 7.30734 12.4923V8.43567H9.92206V12.4923C9.92206 12.9385 10.2162 13.3036 10.5757 13.3036C10.9353 13.3036 11.2294 12.9385 11.2294 12.4923V8.43567H11.3471C11.7589 8.43567 12.0661 7.9651 11.9877 7.46208L11.334 3.40543ZM5.99998 11.681H2.07791V8.43567H5.99998V11.681Z" fill="#585858"/>
</svg>
