<svg width="12" height="15" viewBox="0 0 12 15" fill="none" xmlns="http://www.w3.org/2000/svg">
<path d="M10.7297 10.761C11.525 9.66444 12 8.28466 12 6.78476C12 3.2144 9.31367 0.322388 6 0.322388C2.68633 0.322388 0 3.2144 0 6.78476C0 10.3551 2.68633 13.2468 6 13.2468C6.72955 13.2482 7.45401 13.1045 8.14259 12.822C8.18168 12.8063 8.22403 12.8057 8.26343 12.8203C8.30283 12.8348 8.33723 12.8638 8.36159 12.9029C8.86272 13.696 9.64569 14.2539 10.5163 14.4809C10.5473 14.4883 10.5795 14.4811 10.6059 14.4608C10.6322 14.4405 10.6507 14.4087 10.6571 14.3724C10.6607 14.3526 10.6605 14.332 10.6565 14.3122C10.6526 14.2925 10.6449 14.2739 10.6342 14.258C10.3014 13.752 10.1294 13.1261 10.1475 12.4876C10.1657 11.8491 10.373 11.238 10.7337 10.7591L10.7297 10.761ZM8.84599 6.02485L7.30055 7.39957L7.86101 9.57625C7.87161 9.61713 7.87108 9.66086 7.85948 9.70137C7.84788 9.74187 7.8258 9.77713 7.7963 9.80224C7.76681 9.82735 7.73137 9.84106 7.69491 9.84146C7.65846 9.84186 7.62281 9.82893 7.59292 9.80447L6 8.50688L4.40708 9.80542C4.37717 9.82979 4.34152 9.84266 4.30509 9.84222C4.26865 9.84179 4.23324 9.82808 4.20375 9.80301C4.17426 9.77793 4.15216 9.74272 4.1405 9.70226C4.12885 9.66179 4.12823 9.61809 4.13872 9.5772L4.69945 7.40052L3.15401 6.0258C3.12496 6.00001 3.1035 5.96426 3.09259 5.92352C3.08168 5.88278 3.08188 5.83906 3.09315 5.79845C3.10443 5.75785 3.12621 5.72237 3.15549 5.69694C3.18476 5.67152 3.22007 5.65741 3.2565 5.65659L5.19518 5.60886L5.83332 3.4619C5.84527 3.42159 5.86764 3.38663 5.89731 3.3619C5.92699 3.33716 5.9625 3.32387 5.99892 3.32387C6.03534 3.32387 6.07085 3.33716 6.10053 3.3619C6.13021 3.38663 6.15257 3.42159 6.16452 3.4619L6.80266 5.60886L8.74135 5.65659C8.77796 5.6569 8.81357 5.67063 8.84318 5.69586C8.8728 5.72109 8.89493 5.75656 8.90647 5.79728C8.91801 5.838 8.91839 5.88194 8.90754 5.92292C8.8967 5.9639 8.87517 5.99988 8.84599 6.0258V6.02485Z" fill="#585858"/>
</svg>
