<svg width="14" height="14" viewBox="0 0 14 14" fill="none" xmlns="http://www.w3.org/2000/svg">
<path d="M12.4688 2.625V8.3125C12.4673 8.60214 12.3516 8.8795 12.1468 9.08431C11.942 9.28912 11.6646 9.40481 11.375 9.40625H5.96094L6.15234 9.59766C6.21352 9.65862 6.26207 9.73107 6.29519 9.81084C6.32831 9.89061 6.34536 9.97613 6.34536 10.0625C6.34536 10.1489 6.32831 10.2344 6.29519 10.3142C6.26207 10.3939 6.21352 10.4664 6.15234 10.5273C6.0285 10.6496 5.8615 10.7181 5.6875 10.7181C5.5135 10.7181 5.3465 10.6496 5.22266 10.5273L3.91016 9.21484C3.84898 9.15388 3.80043 9.08143 3.76731 9.00166C3.73419 8.92189 3.71714 8.83637 3.71714 8.75C3.71714 8.66363 3.73419 8.57811 3.76731 8.49834C3.80043 8.41857 3.84898 8.34612 3.91016 8.28516L5.22266 6.97266C5.34594 6.84937 5.51315 6.78011 5.6875 6.78011C5.86185 6.78011 6.02906 6.84937 6.15234 6.97266C6.27563 7.09594 6.34489 7.26315 6.34489 7.4375C6.34489 7.61185 6.27563 7.77906 6.15234 7.90234L5.96094 8.09375H11.1562V2.84375H5.46875V3.0625C5.46875 3.23655 5.39961 3.40347 5.27654 3.52654C5.15347 3.64961 4.98655 3.71875 4.8125 3.71875C4.63845 3.71875 4.47153 3.64961 4.34846 3.52654C4.22539 3.40347 4.15625 3.23655 4.15625 3.0625V2.625C4.15769 2.33536 4.27338 2.058 4.47819 1.85319C4.683 1.64838 4.96036 1.53269 5.25 1.53125H11.375C11.6646 1.53269 11.942 1.64838 12.1468 1.85319C12.3516 2.058 12.4673 2.33536 12.4688 2.625ZM9.1875 10.2812C9.01345 10.2812 8.84653 10.3504 8.72346 10.4735C8.60039 10.5965 8.53125 10.7635 8.53125 10.9375V11.1562H2.84375V5.90625H8.03906L7.84766 6.09766C7.78648 6.15862 7.73793 6.23107 7.70481 6.31084C7.67169 6.39061 7.65464 6.47613 7.65464 6.5625C7.65464 6.64887 7.67169 6.73439 7.70481 6.81416C7.73793 6.89393 7.78648 6.96638 7.84766 7.02734C7.9715 7.14958 8.1385 7.21811 8.3125 7.21811C8.4865 7.21811 8.6535 7.14958 8.77734 7.02734L10.0898 5.71484C10.151 5.65388 10.1996 5.58143 10.2327 5.50166C10.2658 5.42189 10.2829 5.33637 10.2829 5.25C10.2829 5.16363 10.2658 5.07811 10.2327 4.99834C10.1996 4.91857 10.151 4.84612 10.0898 4.78516L8.77734 3.47266C8.65406 3.34937 8.48685 3.28011 8.3125 3.28011C8.13815 3.28011 7.97094 3.34937 7.84766 3.47266C7.72437 3.59594 7.65511 3.76315 7.65511 3.9375C7.65511 4.11185 7.72437 4.27906 7.84766 4.40234L8.03906 4.59375H2.625C2.33536 4.59519 2.058 4.71088 1.85319 4.91569C1.64838 5.1205 1.53269 5.39786 1.53125 5.6875V11.375C1.53269 11.6646 1.64838 11.942 1.85319 12.1468C2.058 12.3516 2.33536 12.4673 2.625 12.4688H8.75C9.03964 12.4673 9.317 12.3516 9.52181 12.1468C9.72662 11.942 9.84231 11.6646 9.84375 11.375V10.9375C9.84375 10.7635 9.77461 10.5965 9.65154 10.4735C9.52847 10.3504 9.36155 10.2812 9.1875 10.2812Z" fill="#585858"/>
</svg>
