<svg width="23" height="23" viewBox="0 0 23 23" fill="none" xmlns="http://www.w3.org/2000/svg">
<path d="M13.9557 13.0248C14.4696 13.0248 14.8861 12.6082 14.8861 12.0944C14.8861 11.5806 14.4696 11.1641 13.9557 11.1641C13.4419 11.1641 13.0254 11.5806 13.0254 12.0944C13.0254 12.6082 13.4419 13.0248 13.9557 13.0248Z" fill="#2AB8F4"/>
<path d="M15.8151 11.1644C16.3289 11.1644 16.7455 10.7479 16.7455 10.2341C16.7455 9.72025 16.3289 9.30371 15.8151 9.30371C15.3013 9.30371 14.8848 9.72025 14.8848 10.2341C14.8848 10.7479 15.3013 11.1644 15.8151 11.1644Z" fill="#2AB8F4"/>
<path d="M9.30346 8.37305H7.44274V10.2338H5.58203V12.0945H7.44274V13.9552H9.30346V12.0945H11.1642V10.2338H9.30346V8.37305Z" fill="#2AB8F4"/>
<rect x="1.98242" y="5.70215" width="18.3666" height="10.9238" rx="5.4619" stroke="#2AB8F4"/>
</svg>
