<svg width="39" height="38" viewBox="0 0 39 38" fill="none" xmlns="http://www.w3.org/2000/svg">
<path d="M19.5 0C8.7577 0 0 8.53315 0 19C0 29.4846 8.7577 38 19.5 38C30.2423 38 39 29.4669 39 19C39 8.53315 30.2605 0 19.5 0ZM19.5 14.5649C18.535 14.5649 17.7339 15.3277 17.7339 16.2857C17.7339 16.9776 18.1527 17.563 18.7535 17.8469V20.0822C16.9328 19.7451 15.549 18.1662 15.549 16.3035C15.549 14.1746 17.3333 12.4538 19.5 12.4538C21.6667 12.4538 23.451 14.1923 23.451 16.3035C23.451 18.1839 22.0672 19.7451 20.2465 20.0822V17.8469C20.8473 17.5808 21.2661 16.9776 21.2661 16.2857C21.2661 15.3455 20.4832 14.5649 19.5 14.5649ZM20.2465 21.5369C22.8866 21.1821 24.944 18.9645 24.944 16.2857C24.944 13.3585 22.5042 10.9813 19.5 10.9813C16.4958 10.9813 14.056 13.3585 14.056 16.2857C14.056 18.9645 16.0952 21.1821 18.7535 21.5369V25.2801C14.0014 24.9076 10.2507 21.0224 10.2507 16.2857C10.2507 11.3184 14.402 7.25584 19.5182 7.25584C24.6345 7.25584 28.7857 11.3007 28.7857 16.2857C28.7857 21.0224 25.035 24.9076 20.2829 25.2801V21.5369H20.2465ZM20.2465 34.7712V27.7993C26.4188 27.4267 31.3347 22.4062 31.3347 16.2857C31.3347 9.9169 26.0182 4.75444 19.5 4.75444C12.9818 4.75444 7.66527 9.93464 7.66527 16.2857C7.66527 22.4062 12.5812 27.4267 18.7535 27.7993V34.7712C10.1597 34.381 3.29552 27.4622 3.29552 19C3.29552 10.2894 10.5602 3.21102 19.5 3.21102C28.4398 3.21102 35.7045 10.2894 35.7045 19C35.7045 27.4622 28.8403 34.3987 20.2465 34.7712Z" fill="#EEBC4E"/>
</svg>
