<svg width="15" height="15" viewBox="0 0 15 15" fill="none" xmlns="http://www.w3.org/2000/svg">
<path d="M7.9323 11.3305L11.5721 7.69072C11.5724 7.69044 11.5726 7.69016 11.5729 7.68988C11.8305 7.43538 12.035 7.1323 12.1747 6.79819C12.3145 6.46372 12.3865 6.10482 12.3865 5.7423C12.3865 5.37978 12.3145 5.02088 12.1747 4.68641C12.0352 4.3526 11.8309 4.04976 11.5736 3.7954C11.3192 3.53829 11.0164 3.33412 10.6826 3.19468C10.3482 3.05496 9.98931 2.98301 9.62685 2.98301C9.26439 2.98301 8.90553 3.05496 8.57109 3.19468C8.23939 3.33326 7.93824 3.53577 7.68481 3.79064C7.43146 3.53581 7.1304 3.33331 6.79878 3.19475C6.4644 3.05503 6.1056 2.98308 5.74321 2.98308C5.38081 2.98308 5.02202 3.05503 4.68764 3.19475C4.35395 3.33418 4.05119 3.53835 3.79685 3.79544C3.5396 4.0498 3.33531 4.35262 3.19579 4.68641C3.05598 5.02088 2.98398 5.37978 2.98398 5.7423C2.98398 6.10482 3.05598 6.46372 3.19579 6.79819C3.33544 7.13229 3.53998 7.43536 3.79755 7.68986L7.43729 11.3305C7.50293 11.3961 7.59196 11.433 7.68479 11.433C7.77762 11.433 7.86666 11.3961 7.9323 11.3305Z" stroke="#6A6A6A" stroke-width="0.7" stroke-linejoin="round"/>
</svg>
