<svg width="36" height="36" viewBox="0 0 36 36" fill="none" xmlns="http://www.w3.org/2000/svg">
<path d="M24.75 18C24.7516 16.7096 24.333 15.4538 23.5575 14.4225L26.55 11.4525C27.1352 11.6959 27.7613 11.8257 28.395 11.835C28.9683 11.853 29.5395 11.7578 30.076 11.5549C30.6125 11.3521 31.1037 11.0454 31.5217 10.6526C31.9396 10.2597 32.276 9.78839 32.5116 9.26546C32.7473 8.74253 32.8775 8.17829 32.895 7.60498C32.895 6.41151 32.4209 5.26691 31.577 4.423C30.7331 3.57909 29.5885 3.10498 28.395 3.10498C27.2015 3.10498 26.0569 3.57909 25.213 4.423C24.3691 5.26691 23.895 6.41151 23.895 7.60498C23.8979 8.30097 24.0841 8.9839 24.435 9.58498L21.4425 12.5775C20.3906 11.9887 19.2055 11.6789 18 11.6775C16.5116 11.657 15.0581 12.129 13.8658 13.0202C12.6735 13.9114 11.8093 15.1717 11.4075 16.605H9.855C9.51518 15.7647 8.92955 15.0467 8.17478 14.5448C7.42002 14.043 6.5313 13.7807 5.625 13.7925C4.47095 13.756 3.34947 14.1783 2.50608 14.9669C1.66268 15.7555 1.16609 16.8461 1.125 18C1.14246 18.5733 1.27273 19.1375 1.50838 19.6605C1.74403 20.1834 2.08043 20.6547 2.49835 21.0476C2.91627 21.4404 3.40751 21.7471 3.944 21.9499C4.48049 22.1528 5.05171 22.248 5.625 22.23C6.5313 22.2417 7.42002 21.9795 8.17478 21.4776C8.92955 20.9758 9.51518 20.2577 9.855 19.4175H11.4075C11.8093 20.8508 12.6735 22.1111 13.8658 23.0023C15.0581 23.8934 16.5116 24.3655 18 24.345C18.8599 24.372 19.7168 24.2292 20.5215 23.9249C21.3262 23.6206 22.0631 23.1607 22.69 22.5714C23.3169 21.9821 23.8215 21.2751 24.1749 20.4907C24.5284 19.7063 24.7238 18.8599 24.75 18ZM28.395 6.20998C28.8035 6.17236 29.2103 6.29797 29.5265 6.55936C29.8427 6.82075 30.0426 7.19667 30.0825 7.60498C30.0169 8.00524 29.8112 8.36915 29.5021 8.63174C29.193 8.89433 28.8006 9.0385 28.395 9.0385C27.9894 9.0385 27.597 8.89433 27.2879 8.63174C26.9788 8.36915 26.7731 8.00524 26.7075 7.60498C26.753 7.19901 26.9544 6.82658 27.2692 6.56631C27.5841 6.30603 27.9877 6.17826 28.395 6.20998ZM5.625 19.4175C5.21421 19.4489 4.80749 19.318 4.49203 19.053C4.17657 18.7881 3.9775 18.41 3.9375 18C3.98295 17.594 4.18436 17.2216 4.49921 16.9613C4.81407 16.701 5.21773 16.5733 5.625 16.605C6.03227 16.5733 6.43593 16.701 6.75079 16.9613C7.06564 17.2216 7.26705 17.594 7.3125 18C7.2725 18.41 7.07343 18.7881 6.75797 19.053C6.44251 19.318 6.03579 19.4489 5.625 19.4175ZM18 21.5325C17.0105 21.5816 16.0417 21.2381 15.3043 20.5765C14.5669 19.9149 14.1206 18.9889 14.0625 18C14.1205 17.0129 14.5676 16.0891 15.3057 15.4311C16.0438 14.7731 17.0127 14.4347 18 14.49C18.9858 14.4406 19.9514 14.7811 20.6882 15.4379C21.425 16.0947 21.8737 17.015 21.9375 18C21.8737 18.9868 21.4257 19.9094 20.6896 20.5697C19.9535 21.2301 18.988 21.5757 18 21.5325Z" fill="#FBBC04"/>
<path d="M5.625 9.85502C6.2601 9.85915 6.88888 9.72879 7.47 9.47252L11.43 13.5C12.0034 12.7343 12.7035 12.0723 13.5 11.5425L9.585 7.60502C9.93587 7.00394 10.1221 6.32101 10.125 5.62502C10.0839 4.47113 9.58732 3.38052 8.74392 2.59194C7.90053 1.80337 6.77905 1.38108 5.625 1.41752C4.47095 1.38108 3.34947 1.80337 2.50608 2.59194C1.66268 3.38052 1.16609 4.47113 1.125 5.62502C1.14246 6.19833 1.27273 6.76257 1.50838 7.2855C1.74403 7.80843 2.08043 8.27979 2.49835 8.67263C2.91627 9.06548 3.40751 9.3721 3.944 9.57499C4.48049 9.77787 5.05171 9.87303 5.625 9.85502ZM5.625 4.23002C6.03227 4.19831 6.43593 4.32607 6.75079 4.58635C7.06564 4.84663 7.26705 5.21905 7.3125 5.62502C7.2725 6.03506 7.07343 6.4131 6.75797 6.67808C6.44251 6.94306 6.03579 7.0739 5.625 7.04252C5.21421 7.0739 4.80749 6.94306 4.49203 6.67808C4.17657 6.4131 3.9775 6.03506 3.9375 5.62502C3.98295 5.21905 4.18436 4.84663 4.49921 4.58635C4.81407 4.32607 5.21773 4.19831 5.625 4.23002ZM30.375 26.1675C29.7399 26.1634 29.1111 26.2938 28.53 26.55L24.57 22.5C23.9841 23.2435 23.2766 23.8825 22.4775 24.39L26.3925 28.305C26.0485 28.9079 25.87 29.5909 25.875 30.285C25.875 31.4785 26.3491 32.6231 27.193 33.467C28.0369 34.3109 29.1815 34.785 30.375 34.785C31.5685 34.785 32.7131 34.3109 33.557 33.467C34.4009 32.6231 34.875 31.4785 34.875 30.285C34.811 29.1471 34.3044 28.0793 33.4635 27.3099C32.6226 26.5405 31.5142 26.1305 30.375 26.1675ZM30.375 31.7925C29.9642 31.8239 29.5575 31.6931 29.242 31.4281C28.9266 31.1631 28.7275 30.7851 28.6875 30.375C28.7531 29.9748 28.9588 29.6109 29.2679 29.3483C29.577 29.0857 29.9694 28.9415 30.375 28.9415C30.7806 28.9415 31.173 29.0857 31.4821 29.3483C31.7912 29.6109 31.9969 29.9748 32.0625 30.375C32.0225 30.7851 31.8234 31.1631 31.508 31.4281C31.1925 31.6931 30.7858 31.8239 30.375 31.7925Z" fill="#FBBC04"/>
</svg>
