<svg width="36" height="36" viewBox="0 0 36 36" fill="none" xmlns="http://www.w3.org/2000/svg">
<path d="M32.3297 9.95625C32.326 9.95625 32.3224 9.95477 32.3198 9.95213C32.3171 9.94949 32.3156 9.94592 32.3156 9.94219C32.1124 9.59613 31.8213 9.30991 31.4719 9.1125L19.0969 2.15156C18.7616 1.96436 18.384 1.86609 18 1.86609C17.616 1.86609 17.2384 1.96436 16.9031 2.15156L4.52813 9.1125C4.17871 9.30991 3.88764 9.59613 3.68438 9.94219C3.68438 9.94592 3.6829 9.94949 3.68027 9.95213C3.67763 9.95477 3.67405 9.95625 3.67032 9.95625V9.98438C3.4759 10.312 3.37385 10.6862 3.37501 11.0672V24.9328C3.37572 25.3337 3.48285 25.7272 3.68545 26.0731C3.88804 26.419 4.17885 26.7049 4.52813 26.9016L16.9031 33.8625C17.2147 34.0324 17.5611 34.1287 17.9156 34.1437H18.1125C18.4581 34.1284 18.7953 34.0321 19.0969 33.8625L31.4719 26.9016C31.8212 26.7049 32.112 26.419 32.3146 26.0731C32.5172 25.7272 32.6243 25.3337 32.625 24.9328V11.0672C32.6271 10.6772 32.5251 10.2937 32.3297 9.95625ZM18 4.10625L29.2078 10.4062L18.1266 16.7063L6.80626 10.4062L18 4.10625ZM5.62501 12.3187L17.0016 18.6609L16.8891 31.275L5.62501 24.9328V12.3187ZM19.1391 31.2609L19.2516 18.6609L30.375 12.3328V24.9328L19.1391 31.2609Z" fill="#FBBC04"/>
</svg>
