<svg width="38" height="38" viewBox="0 0 38 38" fill="none" xmlns="http://www.w3.org/2000/svg">
<path d="M29.2125 8.47578C27.4758 5.49219 25.1156 3.85938 22.5625 3.85938H15.4375C12.8844 3.85938 10.5242 5.49219 8.7875 8.47578C7.05078 11.4594 6.23438 15.0367 6.23438 19C6.23438 22.9633 7.13984 26.7039 8.7875 29.5242C10.4352 32.3445 12.8844 34.1406 15.4375 34.1406H22.5625C25.1156 34.1406 27.4758 32.5078 29.2125 29.5242C30.9492 26.5406 31.7656 22.9633 31.7656 19C31.7656 15.0367 30.8602 11.2961 29.2125 8.47578ZM29.9695 18.1094H24.6258C24.5219 15.3188 23.9727 12.6617 23.0227 10.3906H28.2031C29.257 12.5727 29.8656 15.2594 29.9695 18.1094ZM22.5625 5.64062C24.2398 5.64062 25.8578 6.69453 27.1789 8.60938H22.1617L22.0875 8.47578C21.4906 7.41291 20.7234 6.45515 19.8164 5.64062H22.5625ZM10.3312 28.6336C8.83203 26.0656 8.01562 22.6516 8.01562 19C8.01562 15.3484 8.83203 11.9344 10.3312 9.36641C11.8305 6.79844 13.5523 5.64062 15.4375 5.64062C17.3227 5.64062 19.1484 6.96172 20.5437 9.36641C21.9391 11.7711 22.8594 15.3484 22.8594 19C22.8594 22.6516 22.043 26.0656 20.5437 28.6336C19.0445 31.2016 17.3227 32.3594 15.4375 32.3594C13.5523 32.3594 11.7266 31.0383 10.3312 28.6336ZM22.5625 32.3594H19.8164C20.7234 31.5449 21.4906 30.5871 22.0875 29.5242L22.1617 29.3906H27.1789C25.8578 31.3055 24.2398 32.3594 22.5625 32.3594ZM28.2031 27.6094H23.0227C23.9727 25.3383 24.5219 22.6812 24.6258 19.8906H29.9695C29.8656 22.7406 29.257 25.4273 28.2031 27.6094Z" fill="#FBBC04" stroke="#FBBC04" stroke-width="0.5"/>
</svg>
